HIERARCHY
ROOT hip
{
	OFFSET 0.000000 0.000000 0.000000 
	CHANNELS 6 Xposition Yposition Zposition Xrotation Zrotation Yrotation
	JOINT abdomen
	{
		OFFSET 0.000000 3.402643 0.000000 
		CHANNELS 3 Xrotation Zrotation Yrotation
		JOINT chest
		{
			OFFSET 0.000000 8.438565 -0.680529 
			CHANNELS 3 Xrotation Zrotation Yrotation
			JOINT neck
			{
				OFFSET 0.000000 10.207942 -0.272212 
				CHANNELS 3 Xrotation Zrotation Yrotation
				JOINT head
				{
					OFFSET 0.000000 3.130431 0.000000 
					CHANNELS 3 Xrotation Zrotation Yrotation
					End Site
					{
						OFFSET 0.000000 3.130435 0.000000 
					}
				}
			}
			JOINT lCollar
			{
				OFFSET 3.470700 6.669187 -0.816635 
				CHANNELS 3 Yrotation Zrotation Xrotation
				JOINT lShldr
				{
					OFFSET 3.198488 0.000000 0.000000 
					CHANNELS 3 Zrotation Yrotation Xrotation
					JOINT lForeArm
					{
						OFFSET 10.139888 0.000000 0.000000 
						CHANNELS 3 Yrotation Zrotation Xrotation
						JOINT lHand
						{
							OFFSET 8.370511 0.000000 0.000000 
							CHANNELS 3 Zrotation Yrotation Xrotation
							End Site
							{
								OFFSET 4.083176 0.000000 0.000000 
							}
						}
					}
				}
			}
			JOINT rCollar
			{
				OFFSET -3.470700 6.669187 -0.816635 
				CHANNELS 3 Yrotation Zrotation Xrotation
				JOINT rShldr
				{
					OFFSET -3.198488 0.000000 0.000000 
					CHANNELS 3 Zrotation Yrotation Xrotation
					JOINT rForeArm
					{
						OFFSET -10.139888 0.000000 0.000000 
						CHANNELS 3 Yrotation Zrotation Xrotation
						JOINT rHand
						{
							OFFSET -8.370511 0.000000 0.000000 
							CHANNELS 3 Zrotation Yrotation Xrotation
							End Site
							{
								OFFSET -4.083176 0.000000 0.000000 
							}
						}
					}
				}
			}
		}
	}
	JOINT lThigh
	{
		OFFSET 5.308129 -1.633274 1.361059 
		CHANNELS 3 Xrotation Zrotation Yrotation
		JOINT lShin
		{
			OFFSET -2.041588 -20.007561 0.000000 
			CHANNELS 3 Xrotation Zrotation Yrotation
			JOINT lFoot
			{
				OFFSET 0.000000 -19.190928 -1.224953 
				CHANNELS 3 Xrotation Yrotation Zrotation
				End Site
				{
					OFFSET 0.000000 -2.449906 4.627600 
				}
			}
		}
	}
	JOINT rThigh
	{
		OFFSET -5.308129 -1.633274 1.361059 
		CHANNELS 3 Xrotation Zrotation Yrotation
		JOINT rShin
		{
			OFFSET 2.041588 -20.007561 0.000000 
			CHANNELS 3 Xrotation Zrotation Yrotation
			JOINT rFoot
			{
				OFFSET 0.000000 -19.190928 -1.224953 
				CHANNELS 3 Xrotation Yrotation Zrotation
				End Site
				{
					OFFSET 0.000000 -2.449906 4.627600 
				}
			}
		}
	}
}
MOTION
Frames: 16
Frame Time: 0.011111
18.279228 53.115303 -54.000465 5.391402 -5.712149 -62.451069 38.895725 2.567774 12.310429 -33.020531 8.213346 1.776801 -5.904250 -1.193779 4.295865 5.946567 -6.559144 8.346223 2.971642 -4.490881 1.927035 -38.977116 -58.025154 3.894800 -83.425949 4.392622 24.901947 8.524705 12.647240 -65.716202 -4.704987 0.510038 2.448925 59.077549 41.098701 36.336193 85.754272 -1.922236 27.839304 -8.534408 -12.637552 38.109230 -24.080793 22.440496 -4.828744 60.443794 -2.671309 -8.190557 -9.036212 -22.515745 -8.185861 -0.468698 -3.043891 -4.387657 26.458542 5.506649 4.354965 -19.558384 -2.351806 1.953559 
18.020582 53.026989 -54.011467 4.836102 -5.718063 -61.460892 38.983776 2.013229 12.287203 -33.387341 8.333176 1.798797 -6.348464 -0.896347 4.112556 6.873110 -7.004762 7.913893 2.971642 -4.490881 1.927035 -37.806171 -59.708511 3.731426 -82.947723 4.756852 24.505480 8.524705 12.647240 -65.432991 -4.704987 0.510038 2.448925 58.978020 42.099632 36.875225 85.769455 -1.897908 27.870434 -8.534408 -12.637552 37.357281 -24.423206 22.577663 -3.233602 59.417641 -2.798077 -8.091653 -8.618704 -23.602474 -8.314610 0.067688 -3.435960 -5.078060 26.549438 5.500922 4.361624 -20.000296 -2.477385 1.860464 
17.758797 53.000912 -54.027176 4.782433 -5.815519 -60.494263 38.988632 2.050699 12.379421 -33.667389 8.488522 1.781021 -6.493690 -1.374943 3.712443 7.155972 -6.335172 7.058892 2.971642 -4.490881 1.927035 -36.859028 -61.576012 2.946731 -82.433212 5.112268 24.105566 8.524705 12.647240 -65.491592 -4.704987 0.510038 2.448925 58.815327 43.366867 37.681717 85.733139 -1.953739 27.787874 -8.534408 -12.637552 36.156105 -24.925842 22.593172 -2.960661 58.253510 -2.934724 -7.994350 -9.014652 -23.368202 -8.405310 0.634479 -3.251191 -5.642487 26.488342 5.505694 4.367098 -20.373587 -2.847032 1.688454 
17.500465 52.984253 -54.019321 5.070765 -6.282968 -59.626110 39.250294 2.712058 12.617093 -33.829220 8.601968 1.708547 -5.997321 -2.679548 3.936480 5.425048 -4.297840 7.533978 2.971642 -4.490881 1.927035 -35.869686 -63.237846 1.821070 -81.845131 5.488600 23.675478 8.524705 12.647240 -65.442764 -4.704987 0.510038 2.448925 58.480278 44.806507 38.868813 85.749573 -1.930433 27.828697 -8.534408 -12.637552 36.292828 -25.421602 23.157740 -2.633121 57.128361 -3.043101 -7.892510 -10.207707 -23.088964 -8.769325 1.415121 -2.529338 -5.928107 26.518196 5.504465 4.379157 -20.875505 -3.345717 1.454234 
17.245592 52.948742 -54.003296 5.215421 -6.780868 -58.806141 39.568939 2.938261 13.358877 -34.042213 8.238914 1.884901 -6.346472 -2.265852 3.654576 5.637450 -4.428524 7.003773 2.971642 -4.490881 1.927035 -34.189167 -64.996956 1.843664 -81.070602 5.937965 23.155457 8.524705 12.647240 -64.563858 -4.704987 0.510038 2.448925 58.419811 45.982056 39.298950 85.871979 -1.740114 28.157148 -8.534408 -12.637552 38.499855 -25.688717 23.629078 -2.171376 55.923912 -3.178360 -7.786507 -11.852829 -22.589308 -9.221824 2.320714 -1.890920 -5.958751 26.370977 5.491437 4.363253 -21.375130 -3.861670 1.181167 
17.004858 52.901287 -54.010834 5.268138 -6.873032 -57.827236 39.577896 2.561141 14.317470 -34.210682 7.426761 2.277264 -7.643971 -0.471177 3.082385 7.040738 -5.947588 5.960151 2.971642 -4.490881 1.927035 -32.135632 -67.671715 2.274884 -80.132881 6.419045 22.546535 8.524705 12.647240 -63.841198 -4.704987 0.510038 2.448925 58.737160 47.144165 39.086891 85.852043 -1.771711 28.095963 -8.534408 -12.637552 37.113140 -26.224758 23.764927 -1.742798 54.640034 -3.324804 -7.676934 -13.173428 -21.714437 -9.388951 2.779450 -1.521591 -6.107979 26.278580 5.506477 4.348039 -21.905132 -4.315717 0.949692 
16.765387 52.851944 -54.016178 5.527905 -6.958805 -56.863754 39.452530 2.990784 14.319187 -34.473885 7.667407 2.161036 -8.279787 -0.636737 3.333833 8.649384 -6.241593 6.283928 2.971642 -4.490881 1.927035 -31.093508 -69.056839 1.340001 -79.264130 6.817586 22.012564 8.524705 12.647240 -63.987686 -4.704987 0.510038 2.448925 58.409187 48.290268 40.360107 85.832474 -1.803957 28.044510 -8.534408 -12.637552 36.107281 -27.069639 24.071699 -1.371345 53.327679 -3.458926 -7.517301 -13.553690 -21.030640 -9.285986 3.039707 -0.964024 -6.405719 26.297312 5.516236 4.332445 -22.305233 -5.035914 0.609035 
16.506426 52.794750 -54.014919 5.558049 -7.011843 -56.024544 39.437740 3.103301 14.215158 -34.712700 8.067071 2.043343 -7.731298 -2.149436 3.461776 8.210188 -4.473213 6.439147 2.971642 -4.490881 1.927035 -30.085855 -70.558548 0.240333 -78.182396 7.256450 21.383209 8.524705 12.647240 -64.202530 -4.704987 0.510038 2.448925 57.978046 48.794407 41.610001 85.877151 -1.731924 28.167418 -8.534408 -12.637552 36.370953 -27.563330 24.234171 -0.624386 51.972916 -3.607636 -7.406907 -13.523693 -20.669922 -9.151688 3.414123 -0.594819 -6.406697 26.307177 5.511854 4.361512 -22.721653 -6.081853 0.146703 
16.253126 52.735977 -54.002346 5.698814 -7.175169 -55.056435 39.417408 3.308809 14.438744 -34.868858 8.042759 2.060016 -8.660378 -1.131175 2.934174 9.677635 -6.321332 5.311962 2.971642 -4.490881 1.927035 -28.651783 -72.527016 -0.645084 -76.998833 7.674533 20.711443 8.524705 12.647240 -63.733772 -4.704987 0.510038 2.448925 57.728603 50.847034 42.466591 85.870903 -1.739868 28.157185 -8.534408 -12.637552 36.497906 -28.104952 24.452679 -0.011984 50.637947 -3.741704 -7.268937 -13.912234 -20.046608 -9.067364 3.860942 -0.117274 -6.674805 26.293945 5.533755 4.336154 -23.169298 -6.683577 -0.149042 
16.011452 52.679409 -53.975952 6.061136 -7.480553 -54.093651 39.370968 3.868051 14.794518 -35.012890 7.935156 2.070902 -7.538470 -1.815505 2.505807 7.125414 -5.006957 4.597475 2.971642 -4.490881 1.927035 -26.947021 -74.141495 -1.306510 -76.134674 7.945473 20.244482 8.524705 12.647240 -62.552135 -4.704987 0.510038 2.448925 57.253506 53.543156 43.972183 85.856812 -1.764087 28.115990 -8.534408 -12.637552 37.445171 -28.758984 24.862625 0.401874 49.331532 -3.870617 -7.128515 -14.256344 -19.125063 -8.850196 4.355180 0.624665 -7.075311 26.184481 5.533439 4.316729 -23.389484 -7.189053 -0.384800 
15.772606 52.635727 -53.981926 6.562418 -7.684447 -53.420391 39.330235 4.256339 15.158622 -35.223030 8.073819 2.076577 -5.587550 -2.475878 2.212779 2.819219 -3.792418 4.269343 2.971642 -4.490881 1.927035 -26.188345 -75.349060 -2.156981 -75.024162 8.246157 19.639694 8.524705 12.647240 -62.786514 -4.704987 0.510038 2.448925 57.752079 55.326183 44.648834 85.826424 -1.811250 28.024216 -8.534408 -12.637552 36.341656 -29.544930 25.454052 0.963399 47.964882 -3.987655 -7.004614 -13.829974 -18.318239 -8.450899 4.671650 1.540492 -6.570063 26.021955 5.544064 4.323507 -23.796404 -7.912123 -0.742490 
15.540046 52.604301 -53.970608 7.269598 -8.175526 -52.780540 39.340820 4.890834 16.490561 -35.437698 7.536872 2.375118 -8.040514 -2.462205 2.602073 8.229571 -4.304508 4.640641 2.971642 -4.490881 1.927035 -25.198147 -77.356133 -2.243805 -73.779366 8.539261 18.990118 8.524705 12.647240 -62.991589 -4.704987 0.510038 2.448925 57.051014 56.582443 44.344059 85.943993 -1.619335 28.371853 -8.534408 -12.637552 34.769386 -30.371109 26.318352 1.390055 46.499817 -4.118015 -6.827268 -13.549391 -17.499722 -8.089682 5.132495 2.751182 -6.309234 25.923223 5.539694 4.304103 -24.250740 -8.280985 -0.985674 
15.287686 52.605873 -53.911842 7.207700 -8.394959 -51.843067 39.070648 4.771763 18.073854 -35.732670 6.446930 2.942793 -7.230655 -2.636182 1.731812 7.382885 -3.559852 3.021752 2.971642 -4.490881 1.927035 -24.829945 -80.148209 -0.878581 -72.479195 8.794938 18.323519 8.524705 12.647240 -62.991589 -4.704987 0.510038 2.448925 56.811085 56.844730 42.371876 86.005943 -1.515939 28.595165 -8.534408 -12.637552 32.249859 -30.327847 26.216982 2.195254 44.854557 -4.277235 -6.643230 -13.839680 -16.294161 -7.786212 5.700047 3.035024 -7.019811 25.902754 5.543790 4.293503 -24.675108 -8.203679 -1.062248 
15.053241 52.576332 -53.903984 7.265441 -8.246551 -50.785709 38.942062 3.871966 18.061926 -35.738270 5.514307 3.226437 -8.915218 0.237118 1.003820 8.640821 -4.973038 1.907106 2.971642 -4.490881 1.927035 -20.576097 -82.730774 -2.902621 -71.156006 9.004984 17.649023 8.524705 12.647240 -62.727917 -4.704987 0.510038 2.448925 58.175064 58.628799 41.931244 86.015442 -1.500317 28.635241 -8.534408 -12.637552 30.286964 -30.719408 25.963888 3.073563 43.110233 -4.413496 -6.447600 -14.029860 -15.102656 -7.433358 5.804500 3.345280 -6.983099 25.791569 5.550140 4.285261 -25.350870 -8.862188 -1.477138 
14.827594 52.532959 -53.884815 7.500566 -8.138078 -49.826923 38.832253 5.301933 16.298655 -36.369072 8.030327 2.143721 -7.074939 -3.517790 2.271259 7.511460 -3.622154 3.957300 2.971642 -4.490881 1.927035 -22.374792 -80.807541 -3.990155 -70.255234 9.124175 17.201729 8.524705 12.647240 -62.845104 -4.704987 0.510038 2.448925 56.744476 60.663048 46.055122 86.029922 -1.476863 28.695852 -8.534408 -12.637552 30.150248 -31.248795 25.799700 3.782578 41.334072 -4.553045 -6.237725 -14.028296 -13.885445 -7.046633 5.892753 3.872277 -6.381702 25.560001 5.563175 4.237713 -26.101734 -9.844852 -2.073035 
14.529981 52.549618 -53.756279 6.760783 -8.026093 -49.217346 39.088898 4.346932 15.739889 -35.818188 8.019981 2.187781 -8.321848 -2.706763 2.206237 7.896949 -3.880116 3.825887 2.971642 -4.490881 1.927035 -19.223652 -82.230995 -6.453842 -69.055847 9.254182 16.623539 8.524705 12.647240 -62.854870 -4.704987 0.510038 2.448925 57.735508 63.068142 46.833874 86.017273 -1.501255 28.645193 -8.534408 -12.637552 29.769390 -30.088400 24.932127 5.178334 39.543858 -4.699962 -6.045523 -14.130728 -12.358845 -6.553621 6.711881 3.403889 -6.435027 25.328533 5.573345 4.199328 -26.637543 -10.121153 -2.330365 
